<svg id="logo-tredence" xmlns="http://www.w3.org/2000/svg" xmlns:xlink="http://www.w3.org/1999/xlink" width="240" height="50.571" viewBox="0 0 240 50.571">
  <defs>
    <clipPath id="clip-path">
      <rect id="Rectangle_289" data-name="Rectangle 289" width="240" height="50.571" fill="none"/>
    </clipPath>
  </defs>
  <g id="Group_1999" data-name="Group 1999" clip-path="url(#clip-path)">
    <path id="Path_5367" data-name="Path 5367" d="M231.157,0H218.823V26.175h12.334c7.9,0,12.782-6.147,12.782-13.107C243.939,6.025,239.054,0,231.157,0m0,22.307-8.1.281V3.868h8.1c5.292,0,8.3,4.478,8.3,9.241,0,4.722-3.012,9.2-8.3,9.2" transform="translate(-125.894 -0.001)" fill="#fe5000"/>
    <path id="Path_5368" data-name="Path 5368" d="M0,3.868H10.217V26.175h4.234V3.868H22.4L24.627.006V0H0Z" transform="translate(0 -0.001)" fill="#fe5000"/>
    <path id="Path_5369" data-name="Path 5369" d="M512.622,15.021H527.4V11.113H512.622V3.868h17.643L532.488,0h-24.1V26.175h24.1V22.308H512.622Z" transform="translate(-292.487 0)" fill="#fe5000"/>
    <path id="Path_5370" data-name="Path 5370" d="M90.405,14.981c4.4-.366,6.309-3.745,6.309-7.449C96.715,3.5,94.272,0,89.55,0H71.6V26.175h4.233V15.021h9.362l6.431,11.154h4.722L89.876,14.981h.529Zm-.855-3.867H75.832V3.868H89.55c2.035,0,2.931,1.791,2.931,3.7,0,1.994-.814,3.541-2.931,3.541" transform="translate(-41.192 -0.001)" fill="#fe5000"/>
    <path id="Path_5371" data-name="Path 5371" d="M443.133,13.108c0-4.763,3.012-9.241,8.3-9.241h8.156L461.819,0H451.437c-7.9,0-12.782,6.024-12.782,13.067,0,6.961,4.885,13.108,12.782,13.108h10.382V22.307H451.437c-5.292,0-8.3-4.478-8.3-9.2" transform="translate(-252.368)" fill="#fe5000"/>
    <path id="Path_5372" data-name="Path 5372" d="M385.962,0V19.458L369.558,0h-3.989V26.175H369.8V6.676l16.4,19.5H390.2V0h-4.233Z" transform="translate(-210.319 0)" fill="#fe5000"/>
    <path id="Path_5373" data-name="Path 5373" d="M314.7,3.868,316.917,0h-24.1V26.175h24.1V22.308H297.052V15.021h14.777V11.114H297.052V3.868Z" transform="translate(-168.465 -0.001)" fill="#fe5000"/>
    <path id="Path_5374" data-name="Path 5374" d="M167.951,3.868,170.172,0h-24.1V26.175h24.1V22.308H150.307V15.021h14.777V11.114H150.307V3.868Z" transform="translate(-84.039 -0.001)" fill="#fe5000"/>
    <path id="Path_5375" data-name="Path 5375" d="M231.157,0H218.823V26.175h12.334c7.9,0,12.782-6.147,12.782-13.107C243.939,6.025,239.054,0,231.157,0m0,22.307-8.1.281V3.868h8.1c5.292,0,8.3,4.478,8.3,9.241,0,4.722-3.012,9.2-8.3,9.2" transform="translate(-125.894 -0.001)" fill="#fe5000"/>
    <path id="Path_5376" data-name="Path 5376" d="M0,3.868H10.217V26.175h4.234V3.868H22.4L24.627.006V0H0Z" transform="translate(0 -0.001)" fill="#fe5000"/>
    <path id="Path_5377" data-name="Path 5377" d="M512.622,15.021H527.4V11.113H512.622V3.868h17.643L532.488,0h-24.1V26.175h24.1V22.308H512.622Z" transform="translate(-292.487 0)" fill="#fe5000"/>
    <path id="Path_5378" data-name="Path 5378" d="M90.405,14.981c4.4-.366,6.309-3.745,6.309-7.449C96.715,3.5,94.272,0,89.55,0H71.6V26.175h4.233V15.021h9.362l6.431,11.154h4.722L89.876,14.981h.529Zm-.855-3.867H75.832V3.868H89.55c2.035,0,2.931,1.791,2.931,3.7,0,1.994-.814,3.541-2.931,3.541" transform="translate(-41.192 -0.001)" fill="#fe5000"/>
    <path id="Path_5379" data-name="Path 5379" d="M443.133,13.108c0-4.763,3.012-9.241,8.3-9.241h8.156L461.819,0H451.437c-7.9,0-12.782,6.024-12.782,13.067,0,6.961,4.885,13.108,12.782,13.108h10.382V22.307H451.437c-5.292,0-8.3-4.478-8.3-9.2" transform="translate(-252.368)" fill="#fe5000"/>
    <path id="Path_5380" data-name="Path 5380" d="M385.962,0V19.458L369.558,0h-3.989V26.175H369.8V6.676l16.4,19.5H390.2V0h-4.233Z" transform="translate(-210.319 0)" fill="#fe5000"/>
    <path id="Path_5381" data-name="Path 5381" d="M314.7,3.868,316.917,0h-24.1V26.175h24.1V22.308H297.052V15.021h14.777V11.114H297.052V3.868Z" transform="translate(-168.465 -0.001)" fill="#fe5000"/>
    <path id="Path_5382" data-name="Path 5382" d="M167.951,3.868,170.172,0h-24.1V26.175h24.1V22.308H150.307V15.021h14.777V11.114H150.307V3.868Z" transform="translate(-84.039 -0.001)" fill="#fe5000"/>
    <path id="Path_5383" data-name="Path 5383" d="M151.811,92.165a2.6,2.6,0,0,1,.167,3.005,2.711,2.711,0,0,1-1.157.975,4.088,4.088,0,0,1-1.761.356h-4.046V86.388h3.857a4.142,4.142,0,0,1,1.776.349,2.609,2.609,0,0,1,1.121.939,2.39,2.39,0,0,1,.378,1.317,2.255,2.255,0,0,1-.466,1.455,2.711,2.711,0,0,1-1.252.859,2.238,2.238,0,0,1,1.382.859m-5.137-1.528h2.052A1.973,1.973,0,0,0,150,90.266a1.3,1.3,0,0,0,.459-1.069,1.322,1.322,0,0,0-.459-1.07,1.921,1.921,0,0,0-1.274-.386h-2.052Zm3.566,4.1a1.409,1.409,0,0,0,.48-1.136,1.474,1.474,0,0,0-.509-1.178,2.008,2.008,0,0,0-1.353-.437h-2.183v3.158h2.241a1.983,1.983,0,0,0,1.324-.407" transform="translate(-83.43 -49.701)" fill="#404041"/>
    <path id="Path_5384" data-name="Path 5384" d="M173.146,95.773h-6.127a2.225,2.225,0,0,0,.713,1.542,2.251,2.251,0,0,0,1.572.582,1.942,1.942,0,0,0,1.892-1.121h1.79a3.611,3.611,0,0,1-1.317,1.812,3.864,3.864,0,0,1-2.365.706,4.094,4.094,0,0,1-2.059-.517,3.672,3.672,0,0,1-1.427-1.455,4.44,4.44,0,0,1-.516-2.176,4.539,4.539,0,0,1,.5-2.176,3.53,3.53,0,0,1,1.412-1.448,4.2,4.2,0,0,1,2.088-.509,4.085,4.085,0,0,1,2.023.495,3.5,3.5,0,0,1,1.382,1.39,4.186,4.186,0,0,1,.5,2.059,5.2,5.2,0,0,1-.059.815m-1.673-1.339a1.887,1.887,0,0,0-.655-1.47,2.339,2.339,0,0,0-1.586-.553,2.128,2.128,0,0,0-1.47.546,2.279,2.279,0,0,0-.727,1.477Z" transform="translate(-95.102 -52.362)" fill="#404041"/>
    <path id="Path_5385" data-name="Path 5385" d="M193.684,91.322l-4.919,11.788h-1.717l1.63-3.9-3.158-7.888h1.848l2.255,6.112,2.343-6.112Z" transform="translate(-106.734 -52.54)" fill="#404041"/>
    <path id="Path_5386" data-name="Path 5386" d="M208.388,98.777a3.71,3.71,0,0,1-1.441-1.455,4.388,4.388,0,0,1-.524-2.176,4.305,4.305,0,0,1,.539-2.169,3.718,3.718,0,0,1,1.469-1.455,4.5,4.5,0,0,1,4.162,0,3.722,3.722,0,0,1,1.47,1.455,4.31,4.31,0,0,1,.538,2.169,4.216,4.216,0,0,1-.553,2.168,3.832,3.832,0,0,1-1.506,1.463,4.343,4.343,0,0,1-2.1.516,4.105,4.105,0,0,1-2.052-.516m3.253-1.23a2.328,2.328,0,0,0,.909-.917,2.944,2.944,0,0,0,.35-1.484,3.013,3.013,0,0,0-.335-1.477,2.26,2.26,0,0,0-.888-.909,2.425,2.425,0,0,0-1.193-.306,2.385,2.385,0,0,0-1.186.306,2.18,2.18,0,0,0-.866.909,3.127,3.127,0,0,0-.32,1.477,2.813,2.813,0,0,0,.662,2,2.188,2.188,0,0,0,1.666.706,2.468,2.468,0,0,0,1.2-.306" transform="translate(-118.76 -52.362)" fill="#404041"/>
    <path id="Path_5387" data-name="Path 5387" d="M235.3,91.407a2.8,2.8,0,0,1,1.172,1.164,3.836,3.836,0,0,1,.421,1.863v4.73h-1.644V94.682a2.329,2.329,0,0,0-.538-1.652,1.918,1.918,0,0,0-1.47-.575,1.941,1.941,0,0,0-1.477.575,2.308,2.308,0,0,0-.546,1.652v4.482h-1.659V91.145h1.659v.917a2.742,2.742,0,0,1,1.04-.772,3.334,3.334,0,0,1,1.346-.276,3.6,3.6,0,0,1,1.7.393" transform="translate(-132.067 -52.362)" fill="#404041"/>
    <path id="Path_5388" data-name="Path 5388" d="M250.994,89.429a3.66,3.66,0,0,1,3.3-1.965,3.76,3.76,0,0,1,1.55.342,3.171,3.171,0,0,1,1.215.909V84.845h1.674V95.614h-1.674V94.407a3.1,3.1,0,0,1-1.128.96,3.5,3.5,0,0,1-1.652.378,3.586,3.586,0,0,1-1.914-.531,3.749,3.749,0,0,1-1.368-1.484,4.566,4.566,0,0,1-.5-2.161,4.438,4.438,0,0,1,.5-2.139m5.72.727a2.407,2.407,0,0,0-.895-.931,2.343,2.343,0,0,0-1.194-.32,2.353,2.353,0,0,0-2.088,1.23,2.861,2.861,0,0,0-.342,1.433,2.986,2.986,0,0,0,.342,1.455,2.411,2.411,0,0,0,.9.953,2.312,2.312,0,0,0,1.186.327,2.343,2.343,0,0,0,1.194-.32,2.388,2.388,0,0,0,.895-.939,2.948,2.948,0,0,0,.342-1.448,2.908,2.908,0,0,0-.342-1.441" transform="translate(-144.113 -48.813)" fill="#404041"/>
    <path id="Path_5389" data-name="Path 5389" d="M290.647,90.856a2.725,2.725,0,0,1-1.164,1.113,4.32,4.32,0,0,1-2.052.429H285.6v4.1h-1.659V86.388h3.493a4.412,4.412,0,0,1,1.972.4,2.789,2.789,0,0,1,1.208,1.084,2.972,2.972,0,0,1,.4,1.528,3.052,3.052,0,0,1-.364,1.455m-1.8-.24a1.569,1.569,0,0,0,.466-1.215q0-1.659-1.878-1.659H285.6v3.3h1.833a2.022,2.022,0,0,0,1.412-.429" transform="translate(-163.356 -49.701)" fill="#404041"/>
    <path id="Path_5390" data-name="Path 5390" d="M305.024,98.777a3.713,3.713,0,0,1-1.441-1.455,4.392,4.392,0,0,1-.524-2.176,4.31,4.31,0,0,1,.538-2.169,3.72,3.72,0,0,1,1.47-1.455,4.5,4.5,0,0,1,4.162,0,3.726,3.726,0,0,1,1.47,1.455,4.31,4.31,0,0,1,.538,2.169,4.213,4.213,0,0,1-.553,2.168,3.828,3.828,0,0,1-1.506,1.463,4.343,4.343,0,0,1-2.1.516,4.107,4.107,0,0,1-2.052-.516m3.253-1.23a2.332,2.332,0,0,0,.91-.917,2.949,2.949,0,0,0,.349-1.484,3.013,3.013,0,0,0-.335-1.477,2.258,2.258,0,0,0-.888-.909,2.428,2.428,0,0,0-1.194-.306,2.385,2.385,0,0,0-1.186.306,2.177,2.177,0,0,0-.866.909,3.122,3.122,0,0,0-.32,1.477,2.813,2.813,0,0,0,.662,2,2.188,2.188,0,0,0,1.666.706,2.468,2.468,0,0,0,1.2-.306" transform="translate(-174.356 -52.362)" fill="#404041"/>
    <path id="Path_5391" data-name="Path 5391" d="M326.814,98.952a2.973,2.973,0,0,1-1.186-.931,2.324,2.324,0,0,1-.466-1.317h1.717a1.17,1.17,0,0,0,.488.851,1.773,1.773,0,0,0,1.114.342,1.878,1.878,0,0,0,1.084-.269.812.812,0,0,0,.385-.691.711.711,0,0,0-.429-.67,8.089,8.089,0,0,0-1.361-.48,13.094,13.094,0,0,1-1.47-.48,2.575,2.575,0,0,1-.982-.713,1.867,1.867,0,0,1-.415-1.266,1.971,1.971,0,0,1,.378-1.172,2.518,2.518,0,0,1,1.084-.837,4.057,4.057,0,0,1,1.623-.306,3.349,3.349,0,0,1,2.2.692,2.482,2.482,0,0,1,.9,1.884h-1.659a1.183,1.183,0,0,0-.437-.858,1.632,1.632,0,0,0-1.062-.32,1.727,1.727,0,0,0-1,.247.766.766,0,0,0-.349.655.708.708,0,0,0,.233.538,1.649,1.649,0,0,0,.568.342q.334.124.99.313a10.792,10.792,0,0,1,1.433.473,2.67,2.67,0,0,1,.968.706,1.869,1.869,0,0,1,.422,1.237,2.076,2.076,0,0,1-.378,1.223,2.514,2.514,0,0,1-1.07.844,3.991,3.991,0,0,1-1.623.306,4.038,4.038,0,0,1-1.7-.342" transform="translate(-187.073 -52.362)" fill="#404041"/>
    <path id="Path_5392" data-name="Path 5392" d="M345.113,98.952a2.973,2.973,0,0,1-1.186-.931,2.323,2.323,0,0,1-.466-1.317h1.717a1.171,1.171,0,0,0,.488.851,1.771,1.771,0,0,0,1.113.342,1.878,1.878,0,0,0,1.084-.269.813.813,0,0,0,.386-.691.711.711,0,0,0-.429-.67,8.075,8.075,0,0,0-1.361-.48,13.124,13.124,0,0,1-1.47-.48,2.578,2.578,0,0,1-.982-.713,1.869,1.869,0,0,1-.415-1.266,1.974,1.974,0,0,1,.378-1.172,2.52,2.52,0,0,1,1.084-.837,4.057,4.057,0,0,1,1.623-.306,3.348,3.348,0,0,1,2.2.692,2.481,2.481,0,0,1,.9,1.884h-1.659a1.181,1.181,0,0,0-.437-.858,1.634,1.634,0,0,0-1.063-.32,1.725,1.725,0,0,0-1,.247.766.766,0,0,0-.349.655.71.71,0,0,0,.233.538,1.653,1.653,0,0,0,.568.342q.334.124.99.313a10.766,10.766,0,0,1,1.433.473,2.674,2.674,0,0,1,.968.706,1.87,1.87,0,0,1,.422,1.237,2.076,2.076,0,0,1-.378,1.223,2.512,2.512,0,0,1-1.069.844,3.994,3.994,0,0,1-1.623.306,4.04,4.04,0,0,1-1.7-.342" transform="translate(-197.6 -52.362)" fill="#404041"/>
    <path id="Path_5393" data-name="Path 5393" d="M362.581,85.636a1.063,1.063,0,0,1,.757-1.819,1.009,1.009,0,0,1,.742.306,1.088,1.088,0,0,1,0,1.514,1.01,1.01,0,0,1-.742.306,1.03,1.03,0,0,1-.757-.306m1.572,9.387h-1.659V87h1.659Z" transform="translate(-208.425 -48.222)" fill="#404041"/>
    <path id="Path_5394" data-name="Path 5394" d="M374.652,87.836a3.578,3.578,0,0,1,1.637-.372,3.693,3.693,0,0,1,1.921.51,3.587,3.587,0,0,1,1.353,1.448,4.538,4.538,0,0,1,.494,2.146,4.624,4.624,0,0,1-.494,2.161,3.693,3.693,0,0,1-1.361,1.484,3.807,3.807,0,0,1-3.565.168,3.173,3.173,0,0,1-1.143-.932v1.164h-1.659V84.845h1.659v3.944a3.148,3.148,0,0,1,1.157-.953m3.376,2.3a2.345,2.345,0,0,0-.9-.917,2.426,2.426,0,0,0-1.2-.313,2.356,2.356,0,0,0-1.186.32,2.381,2.381,0,0,0-.9.931,2.9,2.9,0,0,0-.342,1.441,2.945,2.945,0,0,0,.342,1.448,2.366,2.366,0,0,0,2.089,1.259,2.342,2.342,0,0,0,1.2-.327,2.41,2.41,0,0,0,.9-.953,2.987,2.987,0,0,0,.342-1.455,2.862,2.862,0,0,0-.342-1.433" transform="translate(-213.925 -48.813)" fill="#404041"/>
    <rect id="Rectangle_286" data-name="Rectangle 286" width="1.659" height="10.769" transform="translate(167.778 36.032)" fill="#404041"/>
    <path id="Path_5395" data-name="Path 5395" d="M410.658,95.773h-6.127a2.225,2.225,0,0,0,.713,1.542,2.251,2.251,0,0,0,1.572.582,1.941,1.941,0,0,0,1.892-1.121h1.79a3.613,3.613,0,0,1-1.317,1.812,3.865,3.865,0,0,1-2.365.706,4.1,4.1,0,0,1-2.059-.517,3.674,3.674,0,0,1-1.426-1.455,4.44,4.44,0,0,1-.517-2.176,4.539,4.539,0,0,1,.5-2.176,3.529,3.529,0,0,1,1.411-1.448,4.2,4.2,0,0,1,2.089-.509,4.082,4.082,0,0,1,2.023.495,3.5,3.5,0,0,1,1.383,1.39,4.186,4.186,0,0,1,.5,2.059,5.207,5.207,0,0,1-.059.815m-1.674-1.339a1.888,1.888,0,0,0-.655-1.47,2.339,2.339,0,0,0-1.586-.553,2.128,2.128,0,0,0-1.47.546,2.277,2.277,0,0,0-.727,1.477Z" transform="translate(-231.747 -52.362)" fill="#404041"/>
    <rect id="Rectangle_287" data-name="Rectangle 287" width="53.046" height="1.07" transform="translate(186.954 42.278)" fill="#404041"/>
    <rect id="Rectangle_288" data-name="Rectangle 288" width="53.046" height="1.07" transform="translate(0 42.278)" fill="#404041"/>
  </g>
</svg>
